<svg height="512" viewBox="0 0 64 64" width="512" xmlns="http://www.w3.org/2000/svg"><circle cx="32" cy="35" fill="#a78966" r="7"/><path d="m42 35h-6a3 3 0 0 1 2.35-2.93 2.815 2.815 0 0 1 .65-.07 3 3 0 0 1 3 3z" fill="#b39a7c"/><path d="m30 35h-10a5 5 0 0 1 5-5 5.133 5.133 0 0 1 1.8.33 5.014 5.014 0 0 1 3.2 4.67z" fill="#957856"/><path d="m32 22h-8a10 10 0 0 1 -10-10h8a10 10 0 0 1 10 10z" fill="#64c37d"/><path d="m42 3h8a10 10 0 0 1 -10 10h-8a10 10 0 0 1 10-10z" fill="#64c37d"/><path d="m49 40-2 21h-30l-2-21z" fill="#ff9811"/><path d="m13 35h38v5h-38z" fill="#ffda44"/><path d="m51 34h-8.14a4 4 0 0 0 -3.86-3c-.03 0-.06.01-.09.01a8.031 8.031 0 0 0 -5.91-3.94v-13.07h7a11.007 11.007 0 0 0 11-11 1 1 0 0 0 -1-1h-8a11.007 11.007 0 0 0 -11 11v2.7a10.976 10.976 0 0 0 -9-4.7h-8a1 1 0 0 0 -1 1 11.007 11.007 0 0 0 11 11h7v4.07a7.933 7.933 0 0 0 -4.49 2.13 5.79 5.79 0 0 0 -1.51-.2 6.007 6.007 0 0 0 -5.91 5h-6.09a1 1 0 0 0 -1 1v5a1 1 0 0 0 1 1h1.09l1.91 20.09a1 1 0 0 0 1 .91h30a1 1 0 0 0 1-.91l1.91-20.09h1.09a1 1 0 0 0 1-1v-5a1 1 0 0 0 -1-1zm-9-30h6.94a9.008 9.008 0 0 1 -8.94 8h-6.94a9.008 9.008 0 0 1 8.94-8zm-18 17a9.008 9.008 0 0 1 -8.94-8h6.94a9.008 9.008 0 0 1 8.94 8zm15 12a1.988 1.988 0 0 1 1.72 1h-3.44a1.988 1.988 0 0 1 1.72-1zm-7-4a5.982 5.982 0 0 1 4.92 2.6 4.02 4.02 0 0 0 -1.78 2.4h-4.23a5.992 5.992 0 0 0 -2.41-3.86 5.907 5.907 0 0 1 3.5-1.14zm-7 2a4 4 0 0 1 3.86 3h-7.72a4 4 0 0 1 3.86-3zm21.09 29h-28.18l-1.81-19h31.8zm3.91-21h-36v-3h36z"/></svg>